# xmcd CD database file
#
# Track frame offsets:
#	150
#	43684
#	122566
#	176156
#	211515
#	232674
#
# Disc length: 3652 seconds
#
# Revision: 2
# Processed by: cddbd v1.5.2PL0 Copyright (c) Steve Scherf et al.
# Submitted via: CDex 1.51
#
DISCID=420e4206
DTITLE=John Coltrane - Blue Train  [CD 03-10]
DYEAR=1900
DGENRE=Jazz
TTITLE0=Interplay
TTITLE1=Soul Eyes
TTITLE2=Anatomy
TTITLE3=Light Blue
TTITLE4=C.T.A
TTITLE5=Solacium
EXTD=
EXTT0=
EXTT1=
EXTT2=
EXTT3=
EXTT4=
EXTT5=
PLAYORDER=
